<svg xmlns="http://www.w3.org/2000/svg" viewBox="0 0 322 364" width="322" height="364">
	<defs>
		<linearGradient id="grd1" gradientUnits="userSpaceOnUse"  x1="135.925" y1="38.859" x2="513.134" y2="390.612">
			<stop offset="0" stop-color="#006eb5"  />
			<stop offset="0.52" stop-color="#4e0480"  />
			<stop offset="1" stop-color="#24003c"  />
		</linearGradient>
	</defs>
	<style>
		tspan { white-space:pre }
		.shp0 { fill: url(#grd1) } 
	</style>
	<g id="Layer 1">
		<g id="&lt;Group&gt;">
			<path id="&lt;Path&gt;" class="shp0" d="M158.7 363.92L143.43 346.7L152.04 339.06C165.69 326.96 178.87 313.11 191.37 297.73C180.25 296.88 169.64 296.45 159.68 296.45C143.76 296.45 126.2 297.55 107.47 299.71L100.56 300.51L96.64 294.77C95.71 293.41 73.8 261.27 64.03 243.75L55.85 229.09L72.48 226.75C74.8 226.42 129.64 218.75 159.68 218.75C183.46 218.75 210.11 221.01 239.01 225.48C243.7 216.44 249.13 205.16 253.21 196.53C226.77 191.75 192.57 187.1 159.68 187.1C121.25 187.1 52.17 199.21 51.48 199.33L42.49 200.92L38.9 192.53C31.6 175.49 25.16 158.08 19.74 140.78L15.95 128.65L28.39 126.07C31.68 125.39 109.37 109.4 159.68 109.4C204.53 109.4 251.3 117.54 280.44 123.75C282.65 115.64 285.69 104.19 287.97 94.54C263.8 89.35 204.69 77.75 159.68 77.75C101.14 77.75 38.37 92.45 20.53 96.96L8.66 99.96L6.4 87.93C2.6 67.77 0.68 49.14 0.68 32.56L0.68 23.79L9.14 21.46C12.32 20.59 87.84 0.05 159.68 0.05C231.52 0.05 307.05 20.59 310.22 21.46L321.32 24.52L315.22 46.71L304.12 43.66C303.37 43.46 228.35 23.07 159.68 23.07C104.69 23.07 45.63 36.14 23.89 41.46C24.3 50.9 25.33 61.02 26.98 71.73C53.9 65.52 108.17 54.72 159.68 54.72C220.08 54.72 300.91 73.79 304.31 74.6L315 77.14L312.96 87.93C309.82 104.6 300.12 139.02 299.71 140.48L296.73 151.01L286.06 148.57C259.73 142.54 208.3 132.42 159.68 132.42C123.35 132.42 69.87 141.62 45.72 146.15C49.03 155.84 52.66 165.53 56.57 175.12C77.11 171.75 127.44 164.08 159.68 164.08C200.83 164.08 243.56 170.95 272.16 176.71L286.4 179.58L280.36 192.79C279.72 194.17 264.7 226.96 255.33 243.75L251.39 250.83L243.39 249.5C212.58 244.37 184.42 241.77 159.68 241.77C141.26 241.77 111.69 245 93 247.3C99.66 257.9 107.31 269.4 111.8 276.08C128.81 274.32 144.89 273.43 159.68 273.43C176.34 273.43 194.63 274.56 214.04 276.78L234.15 279.19L222.49 295.08C205.4 318.39 186.84 338.98 167.32 356.29L158.7 363.92Z" />
		</g>
	</g>
</svg>