<svg width="100%" height="100%" id="svg" viewBox="0 0 1440 700" xmlns="http://www.w3.org/2000/svg" class="transition duration-300 ease-in-out delay-150"><defs><linearGradient id="gradient" x1="0%" y1="51%" x2="100%" y2="49%"><stop offset="5%" stop-color="#2d95da88"></stop><stop offset="95%" stop-color="#45108688"></stop></linearGradient></defs><path d="M 0,700 C 0,700 0,233 0,233 C 89,210.28571428571428 178,187.57142857142858 315,175 C 452,162.42857142857142 637.0000000000001,160 783,179 C 928.9999999999999,198 1036,238.42857142857144 1139,251 C 1242,263.57142857142856 1341,248.28571428571428 1440,233 C 1440,233 1440,700 1440,700 Z" stroke="none" stroke-width="0" fill="url(#gradient)" class="transition-all duration-300 ease-in-out delay-150 path-0"></path><defs><linearGradient id="gradient" x1="0%" y1="51%" x2="100%" y2="49%"><stop offset="5%" stop-color="#2d95daff"></stop><stop offset="95%" stop-color="#451086ff"></stop></linearGradient></defs><path d="M 0,700 C 0,700 0,466 0,466 C 108.07142857142858,482.2857142857143 216.14285714285717,498.57142857142856 346,500 C 475.85714285714283,501.42857142857144 627.4999999999999,487.9999999999999 757,478 C 886.5000000000001,468.0000000000001 993.8571428571429,461.42857142857144 1104,460 C 1214.142857142857,458.57142857142856 1327.0714285714284,462.2857142857143 1440,466 C 1440,466 1440,700 1440,700 Z" stroke="none" stroke-width="0" fill="url(#gradient)" class="transition-all duration-300 ease-in-out delay-150 path-1"></path></svg>