<?xml version="1.0" encoding="utf-8"?>
<!-- Generator: Adobe Illustrator 23.1.0, SVG Export Plug-In . SVG Version: 6.00 Build 0)  -->
<svg version="1.1" id="Security" xmlns="http://www.w3.org/2000/svg" xmlns:xlink="http://www.w3.org/1999/xlink" x="0px" y="0px"
	 viewBox="0 0 48 48" style="enable-background:new 0 0 48 48;" xml:space="preserve">
<style type="text/css">
	.st0{fill:none;stroke:#4e0480;stroke-width:2;stroke-linejoin:round;}
	.st1{fill:none;stroke:#4e0480;stroke-width:2;stroke-linecap:round;stroke-linejoin:round;}
</style>
<path id="secure-database" class="st0" d="M41,4c0,1.7-7.6,3-17,3S7,5.7,7,4 M41,4c0-1.7-7.6-3-17-3S7,2.3,7,4 M41,4
	c0,2.5,0,6.6,0,7 M7,4v7 M41,11c0,1.7-7.6,4-17,4S7,12.7,7,11 M41,11v9 M7,11v9 M41,20c0,0.8,0,1.9,0,3 M41,20
	c0,0.6-1.1,1.2-2.9,1.7 M7,20c0,1.7,7.6,3,17,3c1.1,0,2.1,0,3.2-0.1 M7,20v8 M7,28v8 M7,28c0,1.5,6.2,2.7,14.4,3 M7,36v8
	c0,1.7,7.6,3,17,3c2.6,0,5.1-0.1,7.3-0.3 M7,36c0,1.5,6.5,2.8,15,3 M34,25c0,0-3.1,3.8-7,3.8c0,2.7,0.5,5.3,1.2,7.6
	c1.5,4.5,4.1,7.6,5.8,7.6s4.2-3.1,5.8-7.6c0.8-2.3,1.2-4.9,1.2-7.6C37.1,28.8,34,25,34,25z M47,34c0,7.2-5.8,13-13,13s-13-5.8-13-13
	s5.8-13,13-13S47,26.8,47,34z"/>
</svg>
