<?xml version="1.0" encoding="utf-8"?>
<!-- Generator: Adobe Illustrator 23.1.0, SVG Export Plug-In . SVG Version: 6.00 Build 0)  -->
<svg version="1.1" id="Security" xmlns="http://www.w3.org/2000/svg" xmlns:xlink="http://www.w3.org/1999/xlink" x="0px" y="0px"
	 viewBox="0 0 48 48" style="enable-background:new 0 0 48 48;" xml:space="preserve">
<style type="text/css">
	.st0{fill:none;stroke:#4e0480;stroke-width:2;stroke-linejoin:round;}
	.st1{fill:none;stroke:#4e0480;stroke-width:2;stroke-linecap:round;stroke-linejoin:round;}
</style>
<path id="lock-connection" class="st0" d="M5.2,10.8C5.9,11.5,6.9,12,8,12c2.2,0,4-1.8,4-4c0-1.1-0.5-2.1-1.2-2.8 M5.2,10.8
	C4.4,10.1,4,9.1,4,8c0-2.2,1.8-4,4-4c1.1,0,2.1,0.4,2.8,1.2 M5.2,10.8c-5.5,7.9-5.5,18.5,0,26.4 M10.8,5.2c7.9-5.5,18.5-5.5,26.4,0
	 M10.8,42.8c0.7-0.7,1.2-1.7,1.2-2.8c0-2.2-1.8-4-4-4c-1.1,0-2.1,0.5-2.8,1.2 M10.8,42.8C10.1,43.6,9.1,44,8,44c-2.2,0-4-1.8-4-4
	c0-1.1,0.4-2.1,1.2-2.8 M10.8,42.8c7.9,5.5,18.5,5.5,26.4,0 M42.8,37.2C42.1,36.5,41.1,36,40,36c-2.2,0-4,1.8-4,4
	c0,1.1,0.5,2.1,1.2,2.8 M42.8,37.2c0.7,0.7,1.2,1.7,1.2,2.8c0,2.2-1.8,4-4,4c-1.1,0-2.1-0.4-2.8-1.2 M42.8,37.2
	c5.5-7.9,5.5-18.5,0-26.4 M42.8,10.8C42.1,11.5,41.1,12,40,12c-2.2,0-4-1.8-4-4c0-1.1,0.5-2.1,1.2-2.8 M42.8,10.8
	C43.6,10.1,44,9.1,44,8c0-2.2-1.8-4-4-4c-1.1,0-2.1,0.4-2.8,1.2 M29,21v-4c0-2.8-2.2-5-5-5s-5,2.2-5,5v4 M29,21H19 M29,21h3v13H16
	V21h3 M24,25v5"/>
</svg>
