<?xml version="1.0" encoding="utf-8"?>
<!-- Generator: Adobe Illustrator 23.1.0, SVG Export Plug-In . SVG Version: 6.00 Build 0)  -->
<svg version="1.1" id="Security" xmlns="http://www.w3.org/2000/svg" xmlns:xlink="http://www.w3.org/1999/xlink" x="0px" y="0px"
	 viewBox="0 0 48 48" style="enable-background:new 0 0 48 48;" xml:space="preserve">
<style type="text/css">
	.st0{fill:none;stroke:#4e0480;stroke-width:2;stroke-linejoin:round;}
	.st1{fill:none;stroke:#4e0480;stroke-width:2;stroke-linecap:round;stroke-linejoin:round;}
</style>
<path id="world-secure" class="st0" d="M47,24c0-5.2-1.7-10-4.6-13.8 M47,24c0,2-0.2,3.9-0.7,5.7 M47,24h-4.7 M24,47
	c-4.7,0-8.7-5.1-10.7-12.6 M24,47c-7.5,0-14.2-3.6-18.4-9.2 M24,47c1.5,0,2.8-0.5,4.1-1.4 M24,47c2,0,3.9-0.2,5.7-0.7 M1,24
	c0,5.2,1.7,10,4.6,13.8 M1,24c0-5.2,1.7-10,4.6-13.8 M1,24h24.7 M24,1c-4.7,0-8.7,5.1-10.7,12.6 M24,1c4.7,0,8.7,5.1,10.7,12.6
	 M24,1C16.5,1,9.8,4.6,5.6,10.2 M24,1c7.5,0,14.2,3.6,18.4,9.2 M13.3,13.6C16.5,14.5,20.1,15,24,15s7.5-0.5,10.7-1.4 M13.3,13.6
	C12.5,16.7,12,20.3,12,24s0.5,7.3,1.3,10.4 M13.3,13.6c-3-0.8-5.7-2-7.7-3.4 M34.7,13.6c3-0.8,5.7-2,7.7-3.4 M34.7,13.6
	c0.6,2.3,1,4.8,1.2,7.5 M13.3,34.4c-3,0.8-5.7,2-7.7,3.4 M13.3,34.4c2.4-0.7,5-1.1,7.7-1.3 M34,25c0,0-3.1,3.8-7,3.8
	c0,2.7,0.5,5.3,1.2,7.6c1.5,4.5,4.1,7.6,5.8,7.6s4.2-3.1,5.8-7.6c0.8-2.3,1.2-4.9,1.2-7.6C37.1,28.8,34,25,34,25z M47,34
	c0,7.2-5.8,13-13,13s-13-5.8-13-13s5.8-13,13-13S47,26.8,47,34z"/>
</svg>
