<?xml version="1.0" encoding="utf-8"?>
<!-- Generator: Adobe Illustrator 23.1.0, SVG Export Plug-In . SVG Version: 6.00 Build 0)  -->
<svg version="1.1" id="Security" xmlns="http://www.w3.org/2000/svg" xmlns:xlink="http://www.w3.org/1999/xlink" x="0px" y="0px"
	 viewBox="0 0 48 48" style="enable-background:new 0 0 48 48;" xml:space="preserve">
<style type="text/css">
	.st0{fill:none;stroke:#4e0480;stroke-width:2;stroke-linejoin:round;}
	.st1{fill:none;stroke:#4e0480;stroke-width:2;stroke-linecap:round;stroke-linejoin:round;}
</style>
<path id="fingerprint-lock" class="st1" d="M43,19C39.6,11.9,32.4,7,24,7S8.4,11.9,5,19 M5.5,32.4C6.4,31.3,7,29.9,7,28
	c0-9.4,7.6-17,17-17c7.5,0,13.8,4.8,16.1,11.5 M6.8,36.1C11.7,32.9,11,28,11,28c0-7.2,5.8-13,13-13c4.6,0,8.7,2.4,11,6 M24,47
	C24,47,24,47,24,47L24,47z M24,47c1-0.5,2-1.3,2.8-2.2 M8.5,39c7.2-2.9,6.5-11,6.5-11c0-5,4-9,9-9c2.4,0,4.6,1,6.3,2.5 M18.6,46.2
	c2.3-1,4.1-2.3,5.5-3.8 M11,41.8c8-3.1,8-11.6,8-13.8c0-2.8,2.2-5,5-5c0.8,0,1.6,0.2,2.3,0.5 M14.4,44.4c2.8-1.9,5.3-4.2,7-7
	 M9.7,7.5C13.2,3.5,18.3,1,24,1s10.8,2.5,14.3,6.5 M30,32h-2v10h12V32h-2 M30,32h8 M30,32v-3c0-2.2,1.8-4,4-4s4,1.8,4,4v3 M34,35v4
	 M47,34c0,7.2-5.8,13-13,13s-13-5.8-13-13s5.8-13,13-13S47,26.8,47,34z"/>
</svg>
