<?xml version="1.0" encoding="utf-8"?>
<!-- Generator: Adobe Illustrator 23.1.0, SVG Export Plug-In . SVG Version: 6.00 Build 0)  -->
<svg version="1.1" id="Security" xmlns="http://www.w3.org/2000/svg" xmlns:xlink="http://www.w3.org/1999/xlink" x="0px" y="0px"
	 viewBox="0 0 48 48" style="enable-background:new 0 0 48 48;" xml:space="preserve">
<style type="text/css">
	.st0{fill:none;stroke:#4e0480;stroke-width:2;stroke-linejoin:round;}
	.st1{fill:none;stroke:#4e0480;stroke-width:2;stroke-linecap:round;stroke-linejoin:round;}
</style>
<path id="pin-code" class="st0" d="M6.4,4.5L9,6 M9,6l2.6,1.5 M9,6l2.6-1.5 M9,6L6.4,7.5 M9,6V3 M9,6v3 M16.4,4.5L19,6 M19,6
	l2.6,1.5 M19,6l2.6-1.5 M19,6l-2.6,1.5 M19,6V3 M19,6v3 M26.4,4.5L29,6 M29,6l2.6,1.5 M29,6l2.6-1.5 M29,6l-2.6,1.5 M29,6V3 M29,6v3
	 M36,6h6 M20,15h8v8h-8V15z M8,15h8v8H8V15z M32,15h8v8h-8V15z M20,27h8v8h-8V27z M8,27h8v8H8V27z M32,27h8v8h-8V27z M20,39h8v8h-8
	V39z M8,39h8v8H8V39z M32,39h8v8h-8V39z M1,1h46v10H1V1z"/>
</svg>
