<?xml version="1.0" encoding="utf-8"?>
<!-- Generator: Adobe Illustrator 23.1.0, SVG Export Plug-In . SVG Version: 6.00 Build 0)  -->
<svg version="1.1" id="Security" xmlns="http://www.w3.org/2000/svg" xmlns:xlink="http://www.w3.org/1999/xlink" x="0px" y="0px"
	 viewBox="0 0 48 48" style="enable-background:new 0 0 48 48;" xml:space="preserve">
<style type="text/css">
	.st0{fill:none;stroke:#4e0480;stroke-width:2;stroke-linejoin:round;}
	.st1{fill:none;stroke:#4e0480;stroke-width:2;stroke-linecap:round;stroke-linejoin:round;}
</style>
<path id="wall" class="st0" d="M16,4h16 M16,4v8 M16,4H1v8h15 M32,4v8 M32,4h15v8H32 M32,12H16 M24,12H8v8h16 M24,12v8 M24,12h16v8
	H24 M24,28H8v8h16 M24,28v8 M24,28h16v8H24 M16,20h16 M16,20v8 M16,20H1v8h15 M32,20v8 M32,20h15v8H32 M32,28H16 M16,36h16 M16,36v8
	 M16,36H1v8h15 M32,36v8 M32,36h15v8H32 M32,44H16"/>
</svg>
